<svg xmlns="http://www.w3.org/2000/svg" viewBox="0 0 64 64"><path d="M64 32A32 32 0 1132 0a32 32 0 0132 32zM26.14 48.88c14.2 0 22-11.76 22-22v-1a16 16 0 003.86-4 15.93 15.93 0 01-4.44 1.21 7.73 7.73 0 003.4-4.27A15.61 15.61 0 0146 20.75 7.72 7.72 0 0032.66 26a7.25 7.25 0 00.2 1.76A21.9 21.9 0 0117 19.73 7.71 7.71 0 0019.36 30a7.78 7.78 0 01-3.49-1v.09a7.73 7.73 0 006.19 7.57A7.48 7.48 0 0120 37a7.83 7.83 0 01-1.45-.14 7.7 7.7 0 007.2 5.36 15.54 15.54 0 01-9.59 3.29 14.09 14.09 0 01-1.84-.11 21.49 21.49 0 0011.79 3.49"/></svg>